<?xml version="1.0" standalone="yes"?>

<svg version="1.1" viewBox="0.0 0.0 237.04199475065616 226.9002624671916" fill="none" stroke="none" stroke-linecap="square" stroke-miterlimit="10" xmlns="http://www.w3.org/2000/svg" xmlns:xlink="http://www.w3.org/1999/xlink"><clipPath id="p.0"><path d="m0 0l237.04199 0l0 226.90027l-237.04199 0l0 -226.90027z" clip-rule="nonzero"></path></clipPath><g clip-path="url(#p.0)"><path fill="#000000" fill-opacity="0.0" d="m0 0l237.04199 0l0 226.90027l-237.04199 0z" fill-rule="evenodd"></path><defs><linearGradient id="p.1" gradientUnits="userSpaceOnUse" gradientTransform="matrix(14.97927923088956 0.0 0.0 14.97927923088956 0.0 0.0)" spreadMethod="pad" x1="2.0626455349988435E-10" y1="-5.69800168932297E-5" x2="-5.422463497082508E-5" y2="14.97922225077452"><stop offset="0.0" stop-color="#dcecd5"></stop><stop offset="1.0" stop-color="#93bc81"></stop></linearGradient></defs><path fill="url(#p.1)" d="m0 112.18898l0 0c0 -61.960266 52.781044 -112.18898 117.88976 -112.18898l0 0c31.266304 0 61.252037 11.819876 83.36065 32.85939c22.108627 21.039513 34.529114 49.57522 34.529114 79.32959l0 0c0 61.96025 -52.781036 112.18898 -117.88976 112.18898l0 0c-65.10872 0 -117.88976 -50.22873 -117.88976 -112.18898z" fill-rule="evenodd"></path><path stroke="#000000" stroke-width="1.0" stroke-linejoin="round" stroke-linecap="butt" d="m0 112.18898l0 0c0 -61.960266 52.781044 -112.18898 117.88976 -112.18898l0 0c31.266304 0 61.252037 11.819876 83.36065 32.85939c22.108627 21.039513 34.529114 49.57522 34.529114 79.32959l0 0c0 61.96025 -52.781036 112.18898 -117.88976 112.18898l0 0c-65.10872 0 -117.88976 -50.22873 -117.88976 -112.18898z" fill-rule="evenodd"></path><path fill="#000000" d="m88.16494 59.77939l0 -13.59375l10.09375 0l0 2.296875l-7.34375 0l0 3.015625l6.828125 0l0 2.28125l-6.828125 0l0 3.703125l7.609375 0l0 2.296875l-10.359375 0zm11.521698 -2.8125l2.609375 -0.390625q0.171875 0.75 0.671875 1.15625q0.515625 0.390625 1.4375 0.390625q1.0 0 1.515625 -0.375q0.34375 -0.265625 0.34375 -0.703125q0 -0.296875 -0.1875 -0.484375q-0.1875 -0.1875 -0.875 -0.34375q-3.140625 -0.703125 -4.0 -1.265625q-1.15625 -0.796875 -1.15625 -2.21875q0 -1.28125 1.0 -2.15625q1.015625 -0.875 3.140625 -0.875q2.03125 0 3.0 0.65625q0.984375 0.65625 1.359375 1.953125l-2.453125 0.453125q-0.15625 -0.578125 -0.609375 -0.875q-0.4375 -0.3125 -1.25 -0.3125q-1.03125 0 -1.46875 0.296875q-0.296875 0.203125 -0.296875 0.515625q0 0.28125 0.25 0.484375q0.359375 0.25 2.4375 0.734375q2.078125 0.46875 2.90625 1.15625q0.828125 0.6875 0.828125 1.9375q0 1.359375 -1.140625 2.328125q-1.125 0.96875 -3.34375 0.96875q-2.015625 0 -3.1875 -0.8125q-1.171875 -0.8125 -1.53125 -2.21875zm15.797592 -7.046875l0 2.078125l-1.78125 0l0 3.984375q0 1.203125 0.046875 1.40625q0.0625 0.1875 0.234375 0.328125q0.1875 0.125 0.453125 0.125q0.359375 0 1.046875 -0.25l0.21875 2.015625q-0.90625 0.390625 -2.0625 0.390625q-0.703125 0 -1.265625 -0.234375q-0.5625 -0.234375 -0.828125 -0.609375q-0.265625 -0.375 -0.375 -1.015625q-0.078125 -0.453125 -0.078125 -1.84375l0 -4.296875l-1.203125 0l0 -2.078125l1.203125 0l0 -1.953125l2.609375 -1.515625l0 3.46875l1.78125 0zm3.650177 3.015625l-2.359375 -0.4375q0.390625 -1.421875 1.359375 -2.109375q0.984375 -0.6875 2.90625 -0.6875q1.734375 0 2.59375 0.421875q0.859375 0.40625 1.203125 1.046875q0.34375 0.625 0.34375 2.328125l-0.03125 3.046875q0 1.296875 0.125 1.921875q0.125 0.609375 0.46875 1.3125l-2.578125 0q-0.09375 -0.265625 -0.25 -0.765625q-0.0625 -0.234375 -0.09375 -0.3125q-0.65625 0.65625 -1.421875 0.984375q-0.765625 0.3125 -1.625 0.3125q-1.515625 0 -2.40625 -0.8125q-0.875 -0.828125 -0.875 -2.09375q0 -0.84375 0.390625 -1.484375q0.40625 -0.65625 1.125 -1.0q0.71875 -0.359375 2.078125 -0.625q1.828125 -0.328125 2.53125 -0.625l0 -0.265625q0 -0.75 -0.375 -1.0625q-0.359375 -0.328125 -1.390625 -0.328125q-0.703125 0 -1.09375 0.28125q-0.390625 0.265625 -0.625 0.953125zm3.484375 2.109375q-0.5 0.171875 -1.59375 0.40625q-1.078125 0.234375 -1.40625 0.453125q-0.515625 0.359375 -0.515625 0.921875q0 0.546875 0.40625 0.953125q0.40625 0.390625 1.046875 0.390625q0.703125 0 1.34375 -0.46875q0.46875 -0.359375 0.625 -0.859375q0.09375 -0.34375 0.09375 -1.28125l0 -0.515625zm13.985085 4.734375l-2.421875 0l0 -1.453125q-0.609375 0.84375 -1.4375 1.265625q-0.8125 0.40625 -1.640625 0.40625q-1.703125 0 -2.921875 -1.359375q-1.2031174 -1.375 -1.2031174 -3.828125q0 -2.5 1.1718674 -3.796875q1.1875 -1.3125 2.984375 -1.3125q1.65625 0 2.859375 1.375l0 -4.890625l2.609375 0l0 13.59375zm-6.96875 -5.140625q0 1.578125 0.4375 2.28125q0.640625 1.015625 1.765625 1.015625q0.90625 0 1.53125 -0.765625q0.625 -0.765625 0.625 -2.28125q0 -1.703125 -0.609375 -2.4375q-0.609375 -0.75 -1.5625 -0.75q-0.9375 0 -1.5625 0.734375q-0.625 0.734375 -0.625 2.203125zm8.724106 0.078125q0 -1.296875 0.640625 -2.515625q0.640625 -1.21875 1.8125 -1.859375q1.171875 -0.640625 2.609375 -0.640625q2.25 0 3.671875 1.453125q1.421875 1.453125 1.421875 3.671875q0 2.234375 -1.4375 3.703125q-1.4375 1.46875 -3.625 1.46875q-1.359375 0 -2.59375 -0.609375q-1.21875 -0.609375 -1.859375 -1.796875q-0.640625 -1.1875 -0.640625 -2.875zm2.671875 0.140625q0 1.46875 0.6875 2.25q0.703125 0.765625 1.71875 0.765625q1.015625 0 1.703125 -0.765625q0.703125 -0.78125 0.703125 -2.265625q0 -1.453125 -0.703125 -2.234375q-0.6875 -0.78125 -1.703125 -0.78125q-1.015625 0 -1.71875 0.78125q-0.6875 0.78125 -0.6875 2.25z" fill-rule="nonzero"></path><path fill="#cfe2f3" d="m39.548557 159.71916l0 0c0 -35.70282 35.499943 -64.64567 79.291336 -64.64567l0 0c43.79139 0 79.29134 28.942848 79.29134 64.64567l0 0c0 35.70282 -35.499954 64.64566 -79.29134 64.64566l0 0c-43.791397 0 -79.291336 -28.94284 -79.291336 -64.64566z" fill-rule="evenodd"></path><path stroke="#000000" stroke-width="1.0" stroke-linejoin="round" stroke-linecap="butt" d="m39.548557 159.71916l0 0c0 -35.70282 35.499943 -64.64567 79.291336 -64.64567l0 0c43.79139 0 79.29134 28.942848 79.29134 64.64567l0 0c0 35.70282 -35.499954 64.64566 -79.29134 64.64566l0 0c-43.791397 0 -79.291336 -28.94284 -79.291336 -64.64566z" fill-rule="evenodd"></path><path fill="#000000" d="m79.03076 159.92542q0 -1.421875 0.421875 -2.390625q0.328125 -0.703125 0.875 -1.265625q0.546875 -0.578125 1.203125 -0.84375q0.859375 -0.375 2.0 -0.375q2.0625 0 3.296875 1.28125q1.234375 1.28125 1.234375 3.546875q0 2.25 -1.234375 3.53125q-1.21875 1.265625 -3.265625 1.265625q-2.078125 0 -3.3125 -1.265625q-1.21875 -1.265625 -1.21875 -3.484375zm1.9375 -0.0625q0 1.578125 0.734375 2.390625q0.734375 0.8125 1.84375 0.8125q1.125 0 1.84375 -0.796875q0.734375 -0.8125 0.734375 -2.4375q0 -1.59375 -0.703125 -2.375q-0.703125 -0.796875 -1.875 -0.796875q-1.15625 0 -1.875 0.796875q-0.703125 0.796875 -0.703125 2.40625zm8.726425 4.65625l0 -9.3125l1.78125 0l0 3.359375q0.828125 -0.9375 1.953125 -0.9375q1.234375 0 2.03125 0.890625q0.8125 0.890625 0.8125 2.5625q0 1.71875 -0.828125 2.65625q-0.8125 0.9375 -1.984375 0.9375q-0.578125 0 -1.140625 -0.28125q-0.5625 -0.296875 -0.96875 -0.859375l0 0.984375l-1.65625 0zm1.765625 -3.515625q0 1.046875 0.328125 1.546875q0.46875 0.71875 1.234375 0.71875q0.59375 0 1.0 -0.5q0.421875 -0.515625 0.421875 -1.609375q0 -1.140625 -0.421875 -1.65625q-0.40625 -0.515625 -1.0625 -0.515625q-0.640625 0 -1.078125 0.5q-0.421875 0.5 -0.421875 1.515625zm5.8288574 1.59375l1.78125 -0.28125q0.109375 0.53125 0.453125 0.796875q0.359375 0.265625 0.984375 0.265625q0.703125 0 1.046875 -0.25q0.234375 -0.171875 0.234375 -0.46875q0 -0.203125 -0.125 -0.34375q-0.140625 -0.125 -0.59375 -0.234375q-2.15625 -0.46875 -2.734375 -0.875q-0.8125 -0.546875 -0.8125 -1.515625q0 -0.875 0.6875 -1.46875q0.703125 -0.59375 2.15625 -0.59375q1.390625 0 2.0625 0.453125q0.671875 0.4375 0.921875 1.328125l-1.6875 0.3125q-0.109375 -0.390625 -0.40625 -0.59375q-0.296875 -0.21875 -0.859375 -0.21875q-0.703125 0 -1.015625 0.1875q-0.203125 0.140625 -0.203125 0.375q0 0.1875 0.1875 0.3125q0.234375 0.1875 1.65625 0.515625q1.4375 0.3125 2.0 0.78125q0.5625 0.484375 0.5625 1.328125q0 0.921875 -0.78125 1.59375q-0.78125 0.671875 -2.296875 0.671875q-1.375 0 -2.1875 -0.5625q-0.796875 -0.5625 -1.03125 -1.515625zm11.943726 -0.21875l1.765625 0.296875q-0.34375 0.96875 -1.078125 1.484375q-0.734375 0.515625 -1.84375 0.515625q-1.765625 0 -2.609375 -1.15625q-0.671875 -0.921875 -0.671875 -2.3125q0 -1.6875 0.875 -2.625q0.890625 -0.953125 2.21875 -0.953125q1.515625 0 2.375 1.0q0.875 0.984375 0.828125 3.03125l-4.46875 0q0.03125 0.796875 0.4375 1.234375q0.40625 0.4375 1.03125 0.4375q0.421875 0 0.703125 -0.21875q0.28125 -0.234375 0.4375 -0.734375zm0.09375 -1.8125q-0.015625 -0.765625 -0.40625 -1.171875q-0.375 -0.40625 -0.921875 -0.40625q-0.578125 0 -0.96875 0.421875q-0.375 0.4375 -0.375 1.15625l2.671875 0zm5.1156006 3.953125l-1.78125 0l0 -6.734375l1.65625 0l0 0.953125q0.421875 -0.6875 0.765625 -0.890625q0.34375 -0.21875 0.765625 -0.21875q0.609375 0 1.171875 0.328125l-0.546875 1.5625q-0.453125 -0.296875 -0.84375 -0.296875q-0.375 0 -0.640625 0.21875q-0.25 0.203125 -0.40625 0.75q-0.140625 0.53125 -0.140625 2.25l0 2.078125zm5.327408 0l-2.71875 -6.734375l1.875 0l1.28125 3.4375l0.359375 1.140625q0.140625 -0.4375 0.1875 -0.578125q0.09375 -0.28125 0.1875 -0.5625l1.28125 -3.4375l1.84375 0l-2.6875 6.734375l-1.609375 0zm6.8968506 -4.6875l-1.625 -0.296875q0.28125 -0.96875 0.9375 -1.4375q0.671875 -0.46875 1.984375 -0.46875q1.203125 0 1.78125 0.28125q0.578125 0.28125 0.8125 0.71875q0.25 0.4375 0.25 1.59375l-0.015625 2.078125q0 0.890625 0.078125 1.3125q0.09375 0.421875 0.328125 0.90625l-1.765625 0q-0.078125 -0.171875 -0.171875 -0.53125q-0.046875 -0.15625 -0.0625 -0.203125q-0.46875 0.4375 -0.984375 0.671875q-0.515625 0.21875 -1.109375 0.21875q-1.046875 0 -1.640625 -0.5625q-0.59375 -0.578125 -0.59375 -1.4375q0 -0.5625 0.265625 -1.015625q0.28125 -0.453125 0.765625 -0.6875q0.5 -0.234375 1.421875 -0.421875q1.25 -0.234375 1.734375 -0.4375l0 -0.171875q0 -0.515625 -0.265625 -0.734375q-0.25 -0.21875 -0.953125 -0.21875q-0.46875 0 -0.734375 0.1875q-0.265625 0.1875 -0.4375 0.65625zm2.390625 1.453125q-0.34375 0.109375 -1.09375 0.265625q-0.734375 0.15625 -0.96875 0.3125q-0.34375 0.25 -0.34375 0.625q0 0.375 0.28125 0.65625q0.28125 0.265625 0.703125 0.265625q0.484375 0 0.921875 -0.3125q0.328125 -0.234375 0.421875 -0.59375q0.078125 -0.21875 0.078125 -0.859375l0 -0.359375zm9.568726 -1.515625l-1.765625 0.3125q-0.078125 -0.515625 -0.40625 -0.78125q-0.3125 -0.265625 -0.8125 -0.265625q-0.65625 0 -1.0625 0.453125q-0.390625 0.453125 -0.390625 1.546875q0 1.1875 0.40625 1.6875q0.40625 0.5 1.078125 0.5q0.515625 0 0.828125 -0.28125q0.328125 -0.296875 0.453125 -1.0l1.765625 0.296875q-0.28125 1.203125 -1.0625 1.828125q-0.765625 0.609375 -2.0625 0.609375q-1.484375 0 -2.359375 -0.9375q-0.875 -0.9375 -0.875 -2.578125q0 -1.671875 0.875 -2.59375q0.875 -0.9375 2.390625 -0.9375q1.234375 0 1.953125 0.53125q0.734375 0.53125 1.046875 1.609375zm1.5374756 -2.90625l0 -1.65625l1.78125 0l0 1.65625l-1.78125 0zm0 7.65625l0 -6.734375l1.78125 0l0 6.734375l-1.78125 0zm3.2811127 -3.46875q0 -0.890625 0.4375 -1.71875q0.4375 -0.828125 1.234375 -1.265625q0.8125 -0.4375 1.8125 -0.4375q1.515625 0 2.5 1.0q0.984375 0.984375 0.984375 2.5q0 1.53125 -1.0 2.546875q-0.984375 1.0 -2.484375 1.0q-0.921875 0 -1.765625 -0.421875q-0.84375 -0.421875 -1.28125 -1.21875q-0.4375 -0.8125 -0.4375 -1.984375zm1.828125 0.09375q0 1.0 0.46875 1.546875q0.484375 0.53125 1.1875 0.53125q0.703125 0 1.171875 -0.53125q0.46875 -0.546875 0.46875 -1.5625q0 -0.984375 -0.46875 -1.515625q-0.46875 -0.53125 -1.171875 -0.53125q-0.703125 0 -1.1875 0.53125q-0.46875 0.53125 -0.46875 1.53125zm0.84375 -4.1875l0.875 -1.90625l2.0 0l-1.75 1.90625l-1.125 0zm12.016357 7.5625l-1.78125 0l0 -3.4375q0 -1.09375 -0.125 -1.40625q-0.109375 -0.328125 -0.375 -0.5q-0.25 -0.1875 -0.609375 -0.1875q-0.453125 0 -0.828125 0.265625q-0.359375 0.25 -0.5 0.671875q-0.140625 0.40625 -0.140625 1.546875l0 3.046875l-1.78125 0l0 -6.734375l1.65625 0l0 0.984375q0.875 -1.140625 2.21875 -1.140625q0.59375 0 1.078125 0.21875q0.484375 0.203125 0.734375 0.53125q0.265625 0.328125 0.359375 0.75q0.09375 0.421875 0.09375 1.203125l0 4.1875z" fill-rule="nonzero"></path></g></svg>

